<?xml version="1.0" encoding="utf-8"?>
<!-- Generator: Adobe Illustrator 16.0.0, SVG Export Plug-In . SVG Version: 6.00 Build 0)  -->
<!DOCTYPE svg PUBLIC "-//W3C//DTD SVG 1.1//EN" "http://www.w3.org/Graphics/SVG/1.1/DTD/svg11.dtd">
<svg version="1.1" id="图层_1" xmlns="http://www.w3.org/2000/svg" xmlns:xlink="http://www.w3.org/1999/xlink" x="0px" y="0px"
	 width="192px" height="49px" viewBox="0 0 192 49" enable-background="new 0 0 192 49" xml:space="preserve">
<path fill="#FFFFFF" d="M69.134,43.962c0,1.101-0.878,1.991-1.961,1.991h-6.702c-1.083,0-1.961-0.893-1.961-1.991V4.139
	c0-1.1,0.878-1.99,1.961-1.99h6.702c1.083,0,1.961,0.892,1.961,1.99V43.962z"/>
<path fill="#FFFFFF" d="M135.641,30.425c1.213,0.8,2.029,2.151,2.029,3.714c0,2.471-2.004,4.477-4.475,4.477
	c-2.473,0-4.477-2.006-4.477-4.477c0-1.703,0.961-3.164,2.361-3.922V18.811c-1.4-0.756-2.361-2.219-2.361-3.922
	c0-2.471,2.004-4.476,4.477-4.476c2.471,0,4.475,2.005,4.475,4.476c0,1.676-0.934,3.121-2.297,3.889h13.197v-14.5
	c0-1.084-0.879-1.961-1.963-1.961H118.17c-1.084,0-1.963,0.877-1.963,1.961v39.715c0,1.084,0.879,1.962,1.963,1.962h28.438
	c1.084,0,1.963-0.878,1.963-1.962V30.425H135.641z"/>
<path fill="#FFFFFF" d="M97.393,30.342c1.213,0.799,2.029,2.151,2.029,3.713c0,2.473-2.004,4.478-4.473,4.478
	c-2.473,0-4.477-2.005-4.477-4.478c0-1.701,0.961-3.164,2.361-3.922V18.729c-1.4-0.756-2.361-2.22-2.361-3.922
	c0-2.472,2.003-4.477,4.477-4.477c2.471,0,4.473,2.004,4.473,4.477c0,1.676-0.932,3.119-2.297,3.887h13.199v-14.5
	c0-1.084-0.879-1.961-1.963-1.961h-28.44c-1.083,0-1.961,0.877-1.961,1.961v39.716c0,1.083,0.878,1.962,1.961,1.962h28.44
	c1.084,0,1.963-0.879,1.963-1.962V30.342H97.393z"/>
<path fill="#FFFFFF" d="M46.1,2.314H3.711c-1.083,0-1.961,0.877-1.961,1.961v40.613c0,1.084,0.878,1.963,1.961,1.963h9.237v-14.93
	c-1.364-0.767-2.297-2.211-2.297-3.887c0-2.471,2.003-4.477,4.476-4.477c2.472,0,4.476,2.004,4.476,4.477
	c0,1.701-0.963,3.165-2.363,3.922v14.895h15.446v-14.93c-1.365-0.767-2.297-2.211-2.297-3.887c0-2.471,2.003-4.477,4.475-4.477
	c2.472,0,4.476,2.004,4.476,4.477c0,1.701-0.962,3.165-2.363,3.922v14.895H46.1c1.083,0,1.961-0.879,1.961-1.963V4.275
	C48.061,3.193,47.182,2.314,46.1,2.314z"/>
<path fill="#FFFFFF" d="M189.945,17.416v0.053h-16.188c-0.768,1.364-2.213,2.299-3.889,2.299c-2.473,0-4.477-2.004-4.477-4.477
	s2.004-4.475,4.477-4.475c1.701,0,3.166,0.961,3.922,2.361h3.709h12.445h0.305V4.191c0-1.082-0.877-1.961-1.961-1.961H159.85
	c-1.084,0-1.961,0.879-1.961,1.961v39.717c0,1.083,0.877,1.962,1.961,1.962h28.439c1.084,0,1.961-0.879,1.961-1.962V17.416H189.945z
	 M183.385,40.061h-17.783V26.803h17.783V40.061z"/>
</svg>
