<?xml version="1.0" encoding="utf-8"?>
<!-- Generator: Adobe Illustrator 16.0.0, SVG Export Plug-In . SVG Version: 6.00 Build 0)  -->
<!DOCTYPE svg PUBLIC "-//W3C//DTD SVG 1.1//EN" "http://www.w3.org/Graphics/SVG/1.1/DTD/svg11.dtd">
<svg version="1.1" id="图层_1" xmlns="http://www.w3.org/2000/svg" xmlns:xlink="http://www.w3.org/1999/xlink" x="0px" y="0px"
	 width="192px" height="49px" viewBox="0 68.168 192 49" enable-background="new 0 68.168 192 49" xml:space="preserve">
<path fill="#EA4335" d="M69.634,112.421c0,1.101-0.878,1.991-1.961,1.991h-6.702c-1.083,0-1.961-0.893-1.961-1.991V72.598
	c0-1.1,0.878-1.991,1.961-1.991h6.702c1.083,0,1.961,0.892,1.961,1.991V112.421z"/>
<path fill="#4285F4" d="M136.141,98.884c1.213,0.8,2.028,2.151,2.028,3.714c0,2.471-2.004,4.476-4.474,4.476
	c-2.473,0-4.477-2.005-4.477-4.476c0-1.703,0.961-3.164,2.361-3.922V87.27c-1.4-0.756-2.361-2.219-2.361-3.922
	c0-2.471,2.004-4.476,4.477-4.476c2.471,0,4.475,2.005,4.475,4.476c0,1.676-0.934,3.121-2.298,3.888h13.198v-14.5
	c0-1.083-0.879-1.961-1.963-1.961h-28.438c-1.084,0-1.962,0.878-1.962,1.961v39.715c0,1.084,0.878,1.962,1.962,1.962h28.438
	c1.084,0,1.963-0.878,1.963-1.962V98.884H136.141z"/>
<path fill="#EA4335" d="M97.893,98.801c1.213,0.799,2.028,2.151,2.028,3.713c0,2.473-2.003,4.477-4.473,4.477
	c-2.472,0-4.476-2.004-4.476-4.477c0-1.701,0.961-3.164,2.361-3.922V87.187c-1.4-0.756-2.361-2.219-2.361-3.922
	c0-2.471,2.003-4.476,4.476-4.476c2.471,0,4.474,2.004,4.474,4.476c0,1.676-0.932,3.12-2.297,3.887h13.198v-14.5
	c0-1.083-0.878-1.961-1.962-1.961h-28.44c-1.083,0-1.961,0.878-1.961,1.961v39.716c0,1.083,0.878,1.962,1.961,1.962h28.44
	c1.084,0,1.962-0.879,1.962-1.962V98.801H97.893z"/>
<path fill="#4285F4" d="M46.6,70.773H4.211c-1.083,0-1.961,0.878-1.961,1.961v40.614c0,1.084,0.878,1.963,1.961,1.963h9.237v-14.93
	c-1.364-0.767-2.297-2.211-2.297-3.887c0-2.471,2.003-4.476,4.476-4.476c2.472,0,4.476,2.004,4.476,4.476
	c0,1.701-0.963,3.165-2.363,3.922v14.895h15.446v-14.93c-1.365-0.767-2.297-2.211-2.297-3.887c0-2.471,2.003-4.476,4.475-4.476
	c2.472,0,4.476,2.004,4.476,4.476c0,1.701-0.962,3.165-2.363,3.922v14.895H46.6c1.083,0,1.961-0.879,1.961-1.963V72.735
	C48.561,71.652,47.682,70.773,46.6,70.773z"/>
<path fill="#34A853" d="M190.445,85.875v0.053h-16.188c-0.768,1.364-2.212,2.298-3.888,2.298c-2.473,0-4.477-2.004-4.477-4.476
	s2.004-4.475,4.477-4.475c1.701,0,3.165,0.962,3.921,2.362H178h12.445h0.305v-8.986c0-1.083-0.878-1.961-1.961-1.961H160.35
	c-1.084,0-1.961,0.878-1.961,1.961v39.716c0,1.083,0.877,1.962,1.961,1.962h28.439c1.083,0,1.961-0.879,1.961-1.962V85.875H190.445z
	 M183.885,108.52h-17.783V95.262h17.783V108.52z"/>
</svg>
