<?xml version="1.0" encoding="utf-8"?>
<!-- Generator: Adobe Illustrator 16.0.0, SVG Export Plug-In . SVG Version: 6.00 Build 0)  -->
<!DOCTYPE svg PUBLIC "-//W3C//DTD SVG 1.1//EN" "http://www.w3.org/Graphics/SVG/1.1/DTD/svg11.dtd">
<svg version="1.1" id="图层_1" xmlns="http://www.w3.org/2000/svg" xmlns:xlink="http://www.w3.org/1999/xlink" x="0px" y="0px"
	 width="251.5px" height="39.023px" viewBox="0 0 251.5 39.023" enable-background="new 0 0 251.5 39.023" xml:space="preserve">
<path fill="#4285F4" d="M7.03,35.23L14.48,21.3H9.07L1.62,35.23H7.03z M2.67,11.25l6.4,8.72h5.48l-6.18-8.72H2.67z M21.3,19.969
	h5.49l6.4-8.72h-5.7L21.3,19.969z M26.72,21.3H21.3l7.46,13.932h5.41L26.72,21.3z M33.33,3.23h-5.35l1.69,6.68h5.35L33.33,3.23z
	 M15.33,9.35V33.26h-4.29V36h9.49V9.35h7.31V6.68h-7.31V2.46h-5.2V6.68H2.39v2.67H15.33z M63.49,2.53h-5.2v3.24h-8.3V2.53h-5.2v3.24
	h-6.82v2.67h6.82v4.01h5.2V8.44h8.3v4.01h5.2V8.44h6.68V5.77h-6.68V2.53z M44.86,17.44h-4.99l-1.83,16.451h5.06L44.86,17.44z
	 M64.27,33.26H50.7V15.33h-5.21V35.93H64.27V33.26z M58.15,13.29h-4.99l2.25,14.13h5.13L58.15,13.29z M68.98,17.44h-5L65.6,33.891
	h5.062L68.98,17.44z M100.971,33.26H98.58V36h7.029V7.03l0,0c0.021-1.5-0.256-2.537-0.83-3.11l0,0l0,0
	c-0.572-0.572-1.609-0.85-3.109-0.83l0,0H74.391V36h4.639V5.77h20.531l0,0c1.033-0.094,1.504,0.374,1.41,1.399l0,0V33.26z
	 M86.41,20.25l3.24-10.62H86.2l-1.54,5.141L83.04,9.63H79.52l3.451,10.762L79.66,31.15h3.449l1.621-5.2l1.608,5.2h3.521L86.41,20.25
	z M97.24,20.25l3.24-10.62h-3.451L95.48,14.77L93.87,9.63H90.35l3.45,10.762l-3.31,10.76h3.449l1.609-5.2l1.62,5.2h3.521
	L97.24,20.25z"/>
<g>
	<path fill="#EA4335" d="M160.052,33.895c0,0.801-0.641,1.449-1.428,1.449h-4.876c-0.791,0-1.428-0.648-1.428-1.449V4.906
		c0-0.802,0.637-1.45,1.428-1.45h4.876c0.787,0,1.428,0.651,1.428,1.45V33.895z"/>
	<path fill="#4285F4" d="M208.465,24.041c0.886,0.583,1.48,1.566,1.48,2.705c0,1.797-1.461,3.258-3.26,3.258
		c-1.796,0-3.258-1.461-3.258-3.258c0-1.241,0.698-2.305,1.721-2.855v-8.303c-1.022-0.552-1.721-1.616-1.721-2.856
		c0-1.8,1.462-3.259,3.258-3.259c1.799,0,3.26,1.459,3.26,3.259c0,1.22-0.679,2.272-1.672,2.83h9.604V5.005
		c0-0.788-0.639-1.427-1.427-1.427h-20.703c-0.79,0-1.427,0.639-1.427,1.427v28.912c0,0.791,0.637,1.428,1.427,1.428h20.703
		c0.788,0,1.427-0.637,1.427-1.428v-9.876H208.465z"/>
	<path fill="#EA4335" d="M180.623,23.981c0.885,0.58,1.478,1.565,1.478,2.702c0,1.8-1.458,3.259-3.254,3.259
		c-1.801,0-3.26-1.459-3.26-3.259c0-1.237,0.699-2.305,1.718-2.855v-8.301c-1.019-0.553-1.718-1.618-1.718-2.855
		c0-1.8,1.455-3.258,3.26-3.258c1.796,0,3.255,1.458,3.255,3.258c0,1.22-0.68,2.269-1.672,2.83h9.606V4.946
		c0-0.791-0.638-1.428-1.428-1.428h-20.702c-0.79,0-1.428,0.637-1.428,1.428v28.912c0,0.789,0.638,1.428,1.428,1.428h20.702
		c0.79,0,1.428-0.639,1.428-1.428v-9.876H180.623z"/>
	<path fill="#4285F4" d="M143.286,3.578h-30.858c-0.79,0-1.428,0.636-1.428,1.427v29.566c0,0.789,0.638,1.429,1.428,1.429h6.723
		V25.131c-0.992-0.557-1.672-1.61-1.672-2.83c0-1.797,1.458-3.259,3.259-3.259c1.8,0,3.258,1.458,3.258,3.259
		c0,1.239-0.701,2.304-1.721,2.856V36h11.245V25.131c-0.996-0.557-1.672-1.61-1.672-2.83c0-1.797,1.458-3.259,3.259-3.259
		c1.797,0,3.256,1.458,3.256,3.259c0,1.239-0.699,2.304-1.72,2.856V36h6.644c0.787,0,1.427-0.64,1.427-1.429V5.005
		C144.713,4.217,144.073,3.578,143.286,3.578z"/>
	<path fill="#34A853" d="M248,14.571v0.037h-11.785c-0.561,0.995-1.61,1.675-2.829,1.675c-1.8,0-3.26-1.458-3.26-3.258
		c0-1.801,1.46-3.259,3.26-3.259c1.237,0,2.303,0.699,2.853,1.72h2.701H248h0.222V4.943c0-0.788-0.64-1.429-1.428-1.429h-20.702
		c-0.79,0-1.428,0.641-1.428,1.429v28.914c0,0.789,0.638,1.428,1.428,1.428h20.702c0.788,0,1.428-0.639,1.428-1.428V14.571H248z
		 M243.225,31.056h-12.947v-9.652h12.947V31.056z"/>
</g>
</svg>
