<?xml version="1.0" encoding="utf-8"?>
<!-- Generator: Adobe Illustrator 16.0.0, SVG Export Plug-In . SVG Version: 6.00 Build 0)  -->
<!DOCTYPE svg PUBLIC "-//W3C//DTD SVG 1.1//EN" "http://www.w3.org/Graphics/SVG/1.1/DTD/svg11.dtd">
<svg version="1.1" id="图层_1" xmlns="http://www.w3.org/2000/svg" xmlns:xlink="http://www.w3.org/1999/xlink" x="0px" y="0px"
	 width="108px" height="39.023px" viewBox="0 0 108 39.023" enable-background="new 0 0 108 39.023" xml:space="preserve">
<path fill="#FFFFFF" d="M7.03,35.23L14.48,21.3H9.07L1.62,35.23H7.03z M2.67,11.25l6.4,8.72h5.48l-6.18-8.72H2.67z M21.3,19.97h5.49
	l6.4-8.72h-5.7L21.3,19.97z M26.72,21.3H21.3l7.46,13.931h5.41L26.72,21.3z M33.33,3.23h-5.35l1.69,6.68h5.35L33.33,3.23z
	 M15.33,9.35v23.91h-4.29V36h9.49V9.35h7.31V6.68h-7.31V2.46h-5.2v4.22H2.39v2.67H15.33z M63.49,2.53h-5.2v3.24h-8.3V2.53h-5.2v3.24
	h-6.82v2.67h6.82v4.01h5.2V8.44h8.3v4.01h5.2V8.44h6.68V5.77h-6.68V2.53z M44.86,17.44h-4.99l-1.83,16.451h5.06L44.86,17.44z
	 M64.27,33.26H50.7V15.33h-5.21v20.6H64.27V33.26z M58.15,13.29h-4.99l2.25,14.13h5.13L58.15,13.29z M68.98,17.44h-5L65.6,33.891
	h5.061L68.98,17.44z M100.971,33.26H98.58V36h7.029V7.03l0,0c0.021-1.5-0.256-2.537-0.83-3.11l0,0l0,0
	c-0.572-0.573-1.609-0.85-3.109-0.83l0,0H74.391V36h4.639V5.77h20.531l0,0c1.033-0.093,1.503,0.374,1.41,1.4l0,0V33.26z
	 M86.41,20.25l3.24-10.62H86.2l-1.54,5.14l-1.62-5.14H79.52l3.451,10.761L79.66,31.15h3.449l1.621-5.2l1.609,5.2h3.52L86.41,20.25z
	 M97.24,20.25l3.24-10.62h-3.451l-1.549,5.14l-1.61-5.14H90.35l3.45,10.761l-3.31,10.76h3.449l1.61-5.2l1.62,5.2h3.52L97.24,20.25z"
	/>
</svg>
