<?xml version="1.0" encoding="utf-8"?>
<!-- Generator: Adobe Illustrator 16.0.0, SVG Export Plug-In . SVG Version: 6.00 Build 0)  -->
<!DOCTYPE svg PUBLIC "-//W3C//DTD SVG 1.1//EN" "http://www.w3.org/Graphics/SVG/1.1/DTD/svg11.dtd">
<svg version="1.1" id="图层_1" xmlns="http://www.w3.org/2000/svg" xmlns:xlink="http://www.w3.org/1999/xlink" x="0px" y="0px"
	 width="192px" height="192px" viewBox="0 0 192 192" enable-background="new 0 0 192 192" xml:space="preserve">
<path fill="#ED7618" d="M69.634,112.421c0,1.1-0.878,1.991-1.961,1.991h-6.702c-1.083,0-1.961-0.892-1.961-1.991V72.598
	c0-1.1,0.878-1.991,1.961-1.991h6.702c1.083,0,1.961,0.892,1.961,1.991V112.421z"/>
<path fill="#35E535" d="M176.905,48.542h-16.472c-0.771-1.428-2.263-2.409-3.999-2.409c-2.52,0-4.563,2.043-4.563,4.563
	c0,2.52,2.044,4.563,4.563,4.563c1.709,0,3.182-0.951,3.964-2.343h16.507V48.542z"/>
<path fill="#35E535" d="M139.375,50.156V38.456c1.392-0.782,2.343-2.255,2.343-3.964c0-2.52-2.043-4.563-4.563-4.563
	c-2.521,0-4.563,2.044-4.563,4.563c0,1.736,0.98,3.228,2.408,3.999v11.63c-1.428,0.771-2.408,2.263-2.408,3.999
	c0,2.52,2.043,4.563,4.563,4.563c2.519,0,4.562-2.044,4.562-4.563C141.717,52.411,140.766,50.938,139.375,50.156z"/>
<path fill="#4285F4" d="M136.14,98.884c1.214,0.799,2.029,2.151,2.029,3.714c0,2.471-2.004,4.475-4.474,4.475
	c-2.472,0-4.476-2.004-4.476-4.475c0-1.703,0.961-3.165,2.361-3.922V87.27c-1.4-0.756-2.361-2.219-2.361-3.922
	c0-2.471,2.004-4.476,4.476-4.476c2.471,0,4.475,2.005,4.475,4.476c0,1.676-0.934,3.121-2.298,3.888h13.198v-14.5
	c0-1.083-0.879-1.961-1.962-1.961h-28.439c-1.084,0-1.962,0.878-1.962,1.961v39.715c0,1.084,0.878,1.962,1.962,1.962h28.439
	c1.083,0,1.962-0.878,1.962-1.962V98.884H136.14z"/>
<path fill="#ED7618" d="M97.892,98.801c1.214,0.798,2.029,2.151,2.029,3.713c0,2.472-2.003,4.476-4.473,4.476
	c-2.472,0-4.476-2.004-4.476-4.476c0-1.702,0.961-3.165,2.361-3.922V87.187c-1.4-0.756-2.361-2.219-2.361-3.922
	c0-2.471,2.003-4.476,4.476-4.476c2.471,0,4.474,2.004,4.474,4.476c0,1.676-0.932,3.12-2.297,3.887h13.198v-14.5
	c0-1.083-0.878-1.961-1.962-1.961h-28.44c-1.083,0-1.961,0.878-1.961,1.961v39.716c0,1.083,0.878,1.962,1.961,1.962h28.44
	c1.084,0,1.962-0.879,1.962-1.962V98.801H97.892z"/>
<path fill="#4285F4" d="M46.6,70.773H4.211c-1.083,0-1.961,0.878-1.961,1.961v40.614c0,1.084,0.878,1.962,1.961,1.962h9.237v-14.929
	c-1.364-0.767-2.297-2.211-2.297-3.887c0-2.471,2.003-4.476,4.476-4.476c2.472,0,4.476,2.004,4.476,4.476
	c0,1.702-0.963,3.165-2.363,3.922v14.894h15.446v-14.929c-1.365-0.767-2.297-2.211-2.297-3.887c0-2.471,2.003-4.476,4.475-4.476
	c2.472,0,4.476,2.004,4.476,4.476c0,1.702-0.962,3.165-2.363,3.922v14.894H46.6c1.083,0,1.961-0.878,1.961-1.962V72.735
	C48.561,71.652,47.682,70.773,46.6,70.773z"/>
<path fill="#34A853" d="M190.445,85.875v0.053h-16.188c-0.768,1.364-2.212,2.298-3.888,2.298c-2.472,0-4.476-2.004-4.476-4.476
	s2.004-4.475,4.476-4.475c1.702,0,3.165,0.962,3.921,2.362H178h12.445h0.305v-8.986c0-1.083-0.878-1.961-1.961-1.961h-28.44
	c-1.083,0-1.961,0.878-1.961,1.961v39.716c0,1.083,0.878,1.962,1.961,1.962h28.44c1.083,0,1.961-0.879,1.961-1.962V85.875H190.445z
	 M183.885,108.52h-17.783V95.262h17.783V108.52z"/>
</svg>
